<svg width="132" height="122" viewBox="0 0 132 122" fill="none" xmlns="http://www.w3.org/2000/svg">
<g clip-path="url(#clip0)">
<path d="M116.103 122H15.8974C7.11652 122 0 114.898 0 106.134V38.2038C0 29.4404 7.11652 22.338 15.8974 22.338H116.114C124.895 22.338 132.011 29.4404 132.011 38.2038V106.146C132 114.898 124.883 122 116.103 122Z" fill="#1664C0"/>
<path d="M0 100.235V106.134C0 114.898 7.11652 122 15.8974 122H116.114C124.895 122 132.011 114.898 132.011 106.134V100.235H0Z" fill="#003C8F"/>
<path d="M21.8087 100.235V22.338L44.1913 0H110.191V100.235" fill="#CFEBFF"/>
<path d="M110.191 100.235H21.8087V122H110.191V100.235Z" fill="#5E92F3"/>
<path d="M120.74 34.4807H47.3823V45.7643H120.74V34.4807Z" fill="#7396B3"/>
<path d="M74.2988 60.8854H47.3823V72.169H74.2988V60.8854Z" fill="#7396B3"/>
</g>
<defs>
<clipPath id="clip0">
<rect width="132" height="122" fill="white"/>
</clipPath>
</defs>
</svg>
